<?xml version="1.0" encoding="UTF-8"?><svg id="Layer_2" xmlns="http://www.w3.org/2000/svg" viewBox="0 0 1639.6 411.64"><defs><style>.cls-1{fill:#fff;}</style></defs><g id="Layer_1-2"><path class="cls-1" d="M1634.26,302.9c-3.56,3.58-7.86,5.36-12.91,5.36s-9.34-1.79-12.89-5.36c-3.53-3.56-5.29-7.87-5.29-12.94s1.78-9.3,5.34-12.86c3.54-3.54,7.82-5.31,12.84-5.31s9.35,1.77,12.91,5.31c3.56,3.54,5.34,7.83,5.34,12.86s-1.78,9.36-5.34,12.94ZM1610.28,278.89c-3.05,3.06-4.57,6.76-4.57,11.1s1.51,8.09,4.54,11.17c3.05,3.08,6.75,4.62,11.1,4.62s8.05-1.54,11.1-4.62c3.05-3.08,4.57-6.8,4.57-11.17s-1.52-8.04-4.57-11.1c-3.06-3.08-6.76-4.62-11.1-4.62s-8.01,1.54-11.07,4.62ZM1621,279.9c2.48,0,4.3.24,5.46.72,2.07.86,3.1,2.55,3.1,5.07,0,1.79-.65,3.11-1.95,3.95-.69.45-1.66.77-2.89.97,1.56.25,2.71.9,3.43,1.96.72,1.06,1.09,2.09,1.09,3.1v1.46c0,.46.02.96.05,1.49.03.53.09.88.17,1.04l.12.25h-3.3c-.02-.07-.03-.13-.05-.2-.02-.07-.03-.14-.05-.22l-.07-.64v-1.58c0-2.31-.63-3.84-1.89-4.58-.74-.43-2.05-.64-3.92-.64h-2.78v7.87h-3.53v-20.01h7ZM1624.81,283.06c-.89-.5-2.31-.74-4.27-.74h-3.01v7.25h3.19c1.49,0,2.61-.15,3.36-.45,1.38-.55,2.07-1.59,2.07-3.13,0-1.46-.44-2.43-1.33-2.93Z"/><path class="cls-1" d="M540.21,0v318.86l-270.53,92.78c-79.04-27.34-158.62-53.24-237.55-80.9-3.46-1.21-32.13-10.17-32.13-11.89V.43l540.21-.43ZM506.55,150.15c-.25-27.92-16.62-48.29-41.45-59.08-48.54-21.08-165.92-18.85-173.41,50.9-5.09,47.41,29.93,65.27,69.71,75.24,14.64,3.67,54.94,8,64.84,16.28,7.25,6.07,5.71,17.81-1.73,23.18-15,10.83-44.91,7.07-53.91-10.69-1.33-2.63-2.45-10.39-2.99-10.39h-81.12c.75,86.08,133.18,94.57,189.24,63.68,41.63-22.94,52.03-83.65,11.23-112.71-29.46-20.98-66.18-18.27-98.16-28.69-11.67-3.81-21.2-11.86-11.58-24.42,10.33-13.49,38.25-7.53,47.71,5.55,2.48,3.42,3.35,11.16,3.94,11.16h77.67ZM120.81,84.57H35.38v165.26c0,30.1,28.87,57.09,56.8,63.15,35.38,7.68,71.8-2.77,94.22-31.65v27.61h82.84V84.57h-86.3v129.01c0,15-12.72,31.57-28.06,33.21-26.35,2.82-32.72-11.68-34.11-34.9l.03-127.32Z"/><path class="cls-1" d="M655.84.86v107.87c35.02-44.91,111.15-37.5,140.16,10.43,40.86,67.53,15.55,199.65-81.08,196.72-25.4-.77-45.9-9.34-61.67-29.37v22.44h-83.71V.86h86.3ZM684.11,142.61c-46.85,6.54-42.55,128.93,18.56,108.31,36.11-12.18,38.06-116.22-18.56-108.31Z"/><path class="cls-1" d="M1433.36.86v147.56c18.08-20.77,35.94-42.01,52.64-63.86h98.38l-78.53,84.99,90.61,139.38h-104.42l-43.16-79.39-15.52,15.96v63.43h-85.43V.86h85.43Z"/><path class="cls-1" d="M1316.86,308.94h-85.43l.03-124.73c-1.14-18.96-5.19-36.63-28.08-36.63-17.81,0-34.09,16.37-34.09,34.07v127.29h-86.3V84.57h82.84v27.61l12.94-13.38c41.18-38.27,138.08-20.01,138.08,44.88v165.26Z"/><path class="cls-1" d="M1063.16,308.94h-88.02l-3.02-20.72c-24.06,29.95-80.51,34.28-113.79,19.73-33.19-14.51-45.78-53.4-33.14-86.4,18.1-47.26,86.64-42.25,126.51-52.12,9.76-2.41,19.32-7.19,19.19-18.84-.3-25.97-52.74-29.76-59.4-2.38-.3,1.23.01,4.53-.21,4.53h-80.25c.19-71.27,81.32-76.18,135.04-73.34,49.34,2.62,83.79,14.91,86.78,69.41,2.2,40.07-2.51,82.58-.03,122.57.8,12.95,3.43,26.52,10.34,37.55ZM970.82,209.7c-13,6.27-27.16,7.66-40.56,11.65-40.19,11.98-20.53,48.52,13.11,41.59,13.64-2.81,27.45-16.83,27.45-31.24v-22.01Z"/></g></svg>